<svg xmlns="http://www.w3.org/2000/svg" viewBox="0 0 64 64"><path fill="#202020" d="M7 45q0-13 25-13t25 13-25 13T7 45Z"/><path fill="#3a3a3a" d="M10 45q0-10 22-10t22 10-22 10-22-10Z"/><path fill="#d34a24" d="m17 47 4-4 4 4-4 4zm11-3 4-4 4 4-4 4zm11 3 4-4 4 4-4 4z"/><path fill="#1b1b1b" d="M12 37h40v3H12zm-2 7h44v3H10zm3 7h38v3H13z"/><path fill="#843a22" d="M13 30q2-10 10-12 17-4 28 7 5 5-2 11-17 5-32 1-6-2-4-7Z"/><path fill="#c56a38" d="M17 27q3-6 9-7 15-2 23 6 3 3-2 7-15 4-28 1-4-1-2-7Z"/><path fill="none" stroke="#4b2418" stroke-width="2" d="m22 21-1 13m7-15-1 16m8-15-1 15m8-12-1 10"/><path fill="#e8a66a" d="M20 25q10-5 23 1l-1 3q-11-5-22-1Z"/><path fill="#bbb" d="M12 16q-5-7 2-11-2 6 4 9-7 4-2 10-8-2-4-8Zm11-3q-3-6 3-9-1 5 4 7-5 3-2 8-6-1-5-6Z"/></svg>